<svg xmlns="http://www.w3.org/2000/svg" xmlns:svg="http://www.w3.org/2000/svg" xmlns:xlink="http://www.w3.org/1999/xlink" id="Layer_1" x="0" y="0" version="1.1" viewBox="0 0 1024 1024" style="enable-background:new 0 0 1024 1024" xml:space="preserve"><style id="style2" type="text/css">.st1{fill:url(#XMLID_15_)}.st10{opacity:.46}</style><g id="g75"><radialGradient id="XMLID_15_" cx="358.269" cy="227.266" r="830.005" gradientUnits="userSpaceOnUse"><stop offset="0" style="stop-color:#f6971e" id="stop4"/><stop offset=".634" style="stop-color:#f4592d" id="stop6"/><stop offset=".703" style="stop-color:#ef4f29" id="stop8"/><stop offset=".818" style="stop-color:#e1351d" id="stop10"/><stop offset=".965" style="stop-color:#ca0b0b" id="stop12"/><stop offset="1" style="stop-color:#c40006" id="stop14"/></radialGradient><path id="XMLID_124_" style="fill:#fff;fill-opacity:.15000001" d="M 510.30078 9.0996094 A 502.79999 502.79999 0 0 0 7.5 511.90039 A 502.79999 502.79999 0 0 0 510.30078 1014.6992 A 502.79999 502.79999 0 0 0 1013.0996 511.90039 A 502.79999 502.79999 0 0 0 510.30078 9.0996094 z M 326.17578 78.685547 C 349.74023 78.648438 372.16211 83.875 393.09961 95 C 420.19961 112.9 439.6 136.99922 455 172.69922 C 465.4 205.69922 469.30078 238.79961 465.80078 281.59961 C 457.70078 373.59961 411.09922 469.09961 341.19922 531.59961 C 312.29922 557.49961 284.4 573.59961 256.5 589.59961 L 256.69922 593.19922 C 279.39922 594.99922 301.39922 586.10078 326.19922 571.80078 C 415.89922 516.50078 483.49922 397.69922 504.69922 285.19922 C 495.49922 338.79922 478.19922 391.4 449.69922 445 C 423.79922 489.6 397.30039 527.1 359.40039 562 C 300.00039 612.9 238.89961 638.80078 183.09961 626.30078 C 122.39961 611.00078 90.399609 545.8 92.599609 461 C 92.399609 457.4 92.1 453.89961 89 455.59961 C 87.6 458.29961 84.700781 463.60078 83.300781 466.30078 C 69.000781 517.30078 77.1 562.79922 91 601.19922 C 116.5 666.39922 177.79922 688.69922 244.69922 676.19922 C 204.99922 685.99922 167.69922 683.3 134.19922 665.5 C 107.09922 647.6 84.599609 625.30039 70.599609 586.90039 C 55.899609 537.80039 50.700391 486.89922 70.400391 421.69922 C 95.300391 338.69922 139.50078 255.59922 207.30078 209.19922 C 227.30078 195.79922 245.99922 185.09961 267.69922 172.59961 C 270.79922 170.79961 270.60039 167.20039 268.90039 166.40039 C 159.40039 170.00039 46.500391 333.30039 20.900391 474.40039 C 36.400391 372.60039 87.500391 272.6 167.90039 198.5 C 213.50039 157.4 258.79922 136.89922 305.19922 130.69922 C 386.89922 122.69922 437.10078 194.1 434.80078 299.5 C 435.00078 303.1 436.70039 304.00039 438.40039 304.90039 C 446.50039 281.70039 451.39961 260.29922 451.59961 239.69922 C 451.50293 126.5894 381.21362 66.112098 291.87891 82.363281 C 288.79216 82.977349 285.71662 83.531343 282.59961 84.300781 C 285.71508 83.559319 288.80642 82.922208 291.87891 82.363281 C 303.5351 80.044429 314.99734 78.703151 326.17578 78.685547 z M 858.04883 508.3457 C 873.78027 508.64453 888.6875 512.44922 902.5 520.19922 C 920.3 532.49922 935.10078 547.69961 943.80078 573.59961 C 952.90078 606.59961 955.59961 640.70039 941.59961 683.90039 C 923.79961 739.00039 893.09961 793.80039 847.09961 823.90039 C 833.49961 832.60039 820.89922 839.4 806.19922 847.5 C 804.09922 848.6 804.20078 850.99922 805.30078 851.69922 C 878.70078 851.09922 956.39961 743.59922 975.59961 649.69922 C 963.79961 717.49922 928.2 783.50078 873.5 831.80078 C 842.5 858.60078 811.90078 871.59961 780.80078 875.09961 C 726.10078 879.29961 693.59922 830.9 696.69922 760.5 C 696.59922 758.1 695.50039 757.50039 694.40039 756.90039 C 688.70039 772.30039 685.09961 786.49922 684.59961 800.19922 C 683.15311 870.80636 723.40104 911.63389 777.53906 908.77344 C 757.57984 910.46578 738.70856 907.29881 721.59961 897.69922 C 703.79961 885.39922 691.10039 869.00039 681.40039 844.90039 C 674.90039 822.70039 672.79922 800.6 675.69922 772 C 682.39922 710.7 714.9 647.60078 762.5 606.80078 C 782.1 589.90078 801.00039 579.60078 819.90039 569.30078 L 819.80078 566.90039 C 804.70078 565.40039 789.89961 570.99922 773.09961 580.19922 C 712.39961 615.89922 665.50078 694.2 649.80078 769 C 656.70078 733.4 669.00078 698.39961 688.80078 663.09961 C 706.80078 633.69961 725.00078 609.00078 750.80078 586.30078 C 791.20078 553.20078 832.40039 536.80039 869.40039 545.90039 C 909.80039 556.90039 930.2 600.9 927.5 657.5 C 927.6 659.9 927.70078 662.29961 929.80078 661.09961 C 930.80078 659.29961 932.80078 655.8 933.80078 654 C 944.00078 620.2 939.3 589.70078 930.5 563.80078 C 914.4 519.90078 873.80039 504.1 828.90039 511.5 C 838.87539 509.25 848.60996 508.16641 858.04883 508.3457 z" class="st1"/><linearGradient id="XMLID_16_" x1="505.473" x2="505.473" y1="-52.674" y2="155.111" gradientUnits="userSpaceOnUse"><stop offset="0" style="stop-color:#fff;stop-opacity:.4" id="stop18"/><stop offset="1" style="stop-color:#fff;stop-opacity:0" id="stop20"/></linearGradient><linearGradient id="XMLID_17_" x1="503.325" x2="503.325" y1="-583.788" y2="-376.457" gradientTransform="matrix(-1 0 0 -1 1017 456.5313)" gradientUnits="userSpaceOnUse"><stop offset=".005" style="stop-color:#9e3a1d;stop-opacity:.4" id="stop24"/><stop offset="1" style="stop-color:#9e3a1d;stop-opacity:0" id="stop26"/></linearGradient><linearGradient id="XMLID_18_" x1="506.189" x2="506.189" y1="-38.755" y2="169.029" gradientTransform="matrix(4.489700e-11 1 -1 4.489700e-11 1026.6101 -2.3899)" gradientUnits="userSpaceOnUse"><stop offset=".005" style="stop-color:#9e3a1d;stop-opacity:.4" id="stop30"/><stop offset="1" style="stop-color:#9e3a1d;stop-opacity:0" id="stop32"/></linearGradient><linearGradient id="XMLID_19_" x1="502.61" x2="502.61" y1="-660.731" y2="-450.373" gradientTransform="matrix(-4.489700e-11 -1 1 -4.489700e-11 570.0789 1014.6101)" gradientUnits="userSpaceOnUse"><stop offset="0" style="stop-color:#fff;stop-opacity:.4" id="stop36"/><stop offset="1" style="stop-color:#fff;stop-opacity:0" id="stop38"/></linearGradient><g id="XMLID_39_" class="st10"><defs id="defs43"><ellipse id="XMLID_36_" cx="510.3" cy="511.9" class="st10" rx="502.8" ry="502.8" transform="matrix(0.8019 -0.5974 0.5974 0.8019 -204.724 406.2339)"/></defs><clipPath id="XMLID_20_"><use xlink:href="#XMLID_36_" style="overflow:visible" id="use45"/></clipPath></g><g id="XMLID_41_"><linearGradient id="XMLID_21_" x1="64.499" x2="401.15" y1="234.87" y2="480.704" gradientUnits="userSpaceOnUse"><stop offset="0" style="stop-color:#f4592d" id="stop49"/><stop offset="1" style="stop-color:#ffd900" id="stop51"/></linearGradient><linearGradient id="XMLID_22_" x1="438.135" x2="196.657" y1="490.088" y2="356.177" gradientUnits="userSpaceOnUse"><stop offset="0" style="stop-color:#f64626" id="stop55"/><stop offset="1" style="stop-color:#ffd900" id="stop57"/></linearGradient></g><g id="XMLID_11_"><linearGradient id="XMLID_23_" x1="-316.926" x2="-92.035" y1="9.586" y2="173.809" gradientTransform="matrix(-0.9998 -2.148304e-02 2.148304e-02 -0.9998 625.9278 811.8477)" gradientUnits="userSpaceOnUse"><stop offset="0" style="stop-color:#f4592d" id="stop62"/><stop offset="1" style="stop-color:#ffd900" id="stop64"/></linearGradient><linearGradient id="XMLID_24_" x1="-52.901" x2="-214.214" y1="188.078" y2="98.623" gradientTransform="matrix(-0.9998 -2.148304e-02 2.148304e-02 -0.9998 625.9278 811.8477)" gradientUnits="userSpaceOnUse"><stop offset="0" style="stop-color:#f42c2d" id="stop68"/><stop offset="1" style="stop-color:#ffd900" id="stop70"/></linearGradient></g></g></svg>